HIERARCHY
ROOT Hips
{
  OFFSET -69.4423 88.0299 51.6846
  CHANNELS 6 Xposition Yposition Zposition Zrotation Xrotation Yrotation
  JOINT Spine
  {
    OFFSET 12.0259 -0.162853 1.93176e-005
    CHANNELS 3 Zrotation Xrotation Yrotation
    JOINT Spine1
    {
      OFFSET 15.3169 -0.0121909 0
      CHANNELS 3 Zrotation Xrotation Yrotation
      JOINT Spine2
      {
        OFFSET 15.3176 -0.0121922 0
        CHANNELS 3 Zrotation Xrotation Yrotation
        JOINT Neck
        {
          OFFSET 19.9142 1.56236 0
          CHANNELS 3 Zrotation Xrotation Yrotation
          JOINT Head
          {
            OFFSET 6.92646 0 0
            CHANNELS 3 Zrotation Xrotation Yrotation
            End Site
            {
              OFFSET 20.7666 0 0
            }
          }
          JOINT LeftShoulder
          {
            OFFSET -4.94072 -1.14703 8.14416
            CHANNELS 3 Zrotation Xrotation Yrotation
            JOINT LeftArm
            {
              OFFSET 14.108 0 -2.74767e-005
              CHANNELS 3 Zrotation Xrotation Yrotation
              JOINT LeftForeArm
              {
                OFFSET 28.5802 -0.0783412 -0.0284884
                CHANNELS 3 Zrotation Xrotation Yrotation
                JOINT LeftHand
                {
                  OFFSET 27.092 0 0
                  CHANNELS 3 Zrotation Xrotation Yrotation
                  End Site
                  {
                    OFFSET 9.55928 -0.186424 0.145352
                  }
                }
              }
            }
          }
          JOINT RightShoulder
          {
            OFFSET -7.15748 -1.33027 -6.24935
            CHANNELS 3 Zrotation Xrotation Yrotation
            JOINT RightArm
            {
              OFFSET 14.108 0 1.82997e-005
              CHANNELS 3 Zrotation Xrotation Yrotation
              JOINT RightForeArm
              {
                OFFSET 28.5802 -0.0707221 2.30684e-005
                CHANNELS 3 Zrotation Xrotation Yrotation
                JOINT RightHand
                {
                  OFFSET 27.092 0 -1.30073e-005
                  CHANNELS 3 Zrotation Xrotation Yrotation
                  End Site
                  {
                    OFFSET 9.55929 -0.186417 -0.145354
                  }
                }
              }
            }
          }
        }
      }
    }
  }
  JOINT LeftUpLeg
  {
    OFFSET 0.00499725 -0.534999 8.837
    CHANNELS 3 Zrotation Xrotation Yrotation
    JOINT LeftLeg
    {
      OFFSET 39.9035 -0.00124594 0.000252775
      CHANNELS 3 Zrotation Xrotation Yrotation
      JOINT LeftFoot
      {
        OFFSET 39.6689 0 0
        CHANNELS 3 Zrotation Xrotation Yrotation
        JOINT LeftToe
        {
          OFFSET 10.1624 13.6296 0
          CHANNELS 3 Zrotation Xrotation Yrotation
          End Site
          {
            OFFSET 8.38147 0 0
          }
        }
      }
    }
  }
  JOINT RightUpLeg
  {
    OFFSET 0.00499725 -0.535 -8.837
    CHANNELS 3 Zrotation Xrotation Yrotation
    JOINT RightLeg
    {
      OFFSET 39.9036 -0.000268477 0.000106433
      CHANNELS 3 Zrotation Xrotation Yrotation
      JOINT RightFoot
      {
        OFFSET 39.6689 1.17892e-005 0
        CHANNELS 3 Zrotation Xrotation Yrotation
        JOINT RightToe
        {
          OFFSET 10.1624 13.6296 0
          CHANNELS 3 Zrotation Xrotation Yrotation
          End Site
          {
            OFFSET 8.38147 0 0
          }
        }
      }
    }
  }
}
MOTION
Frames:	18
Frame Time:	0.0333333
59.9616 89.0591 70.9783 96.7911 18.9326 2.47409 0.923571 -0.89398 0.00105072 1.84751 -1.78731 0.0166829 1.8475 -1.78732 0.0166746 -17.9227 -5.08446 -14.9727 46.7665 -4.41183 20.915 -165.342 -8.44893 -96.7026 -16.0226 7.94425 80.8269 -23.1911 2.42915 -14.6045 16.8062 -85.7642 19.2422 -165.25 -10.4975 71.8783 -15.1364 -1.70932 -83.1033 -29.6431 -4.40926 17.7785 7.44012 87.1048 -7.35952 13.2804 9.44823 177.344 -1.99292 0.921688 -1.64735 -7.81775 -21.5191 -5.24749 90 -1.59028e-015 -1.27222e-014 -33.8524 -10.7578 170.929 -31.1552 -0.0346926 0.658832 -7.12906 10.6636 3.22016 90 -7.95139e-016 -7.95139e-016 
57.6821 89.0615 70.6412 96.8482 17.139 2.62976 0.949261 -0.962993 0.00847291 1.89907 -1.92531 0.0330839 1.89907 -1.92533 0.0330712 -18.441 -4.64747 -14.6405 46.584 -4.05307 20.0045 -164.693 -8.01755 -96.4341 -16.4945 7.67114 81.0383 -23.7277 2.52661 -14.917 60.4741 -88.5564 62.9392 -164.603 -10.0823 72.139 -13.5689 -1.71706 -83.7451 -28.8368 -4.19165 17.3635 6.19892 86.5041 -6.10014 14.407 9.01852 177.773 -1.9549 0.895667 -1.60341 -11.2748 -21.5633 -6.64467 90 -4.77083e-015 9.54166e-015 -32.6736 -10.15 171.996 -31.5446 -0.0847405 0.65564 -5.59832 10.0191 2.68002 90 -3.18055e-015 -3.97569e-015 
55.2198 89.3241 70.0645 97.0861 15.4969 1.85123 0.885861 -0.991803 0.186868 1.77538 -1.9801 0.389281 1.77534 -1.9801 0.389265 -18.6036 -4.54944 -14.6152 46.2581 -4.08622 19.7072 -164.49 -7.9026 -96.3957 -17.3129 7.23591 81.0234 -23.4477 2.47379 -14.7984 127.262 -88.3684 129.709 -164.442 -10.009 72.1236 -13.4172 -2.4565 -83.9705 -27.9999 -3.97129 16.9376 6.53115 86.6443 -6.43238 15.0014 8.72328 179.089 -1.90127 0.841863 -1.55741 -16.0235 -21.4864 -8.61094 90 1.11319e-014 -0 -30.9911 -10.9616 173.896 -30.9523 -0.128874 0.646865 -4.71328 9.02154 2.22193 90 -7.95139e-016 -0 
52.5923 89.5984 69.4282 96.9644 13.8542 0.96536 0.900973 -0.883852 0.374989 1.80805 -1.76125 0.76411 1.80804 -1.76125 0.764102 -18.5861 -4.43929 -14.4154 45.8891 -4.06888 19.3255 -164.408 -7.69447 -96.1589 -16.907 6.01812 80.7037 -22.3325 2.27471 -14.2582 64.1932 -88.7713 66.4866 -164.423 -9.87329 72.2161 -12.8914 -2.89451 -84.1874 -26.889 -3.67621 16.3457 6.11201 86.5778 -5.99619 12.5869 8.57975 -179.174 -7.62644 0.653309 -1.13154 -18.1778 -22.5328 -8.74485 90 3.18055e-015 2.22639e-014 -28.5573 -12.851 175.795 -29.9657 -0.202505 0.612731 -3.71583 7.19978 1.57945 90 3.57812e-014 3.33958e-014 
50.055 89.7173 68.825 96.2948 12.3485 0.54575 1.00541 -0.739454 0.47911 2.01723 -1.4698 0.971418 2.01723 -1.4698 0.97141 -18.5464 -4.31177 -14.4346 45.6621 -3.93593 19.1148 -164.365 -7.52438 -96.0944 -15.87 4.4764 80.6243 -20.7305 2.02659 -13.462 66.3235 -88.6739 68.5475 -164.453 -9.80267 72.0758 -12.478 -3.04614 -84.2695 -25.3858 -3.30883 15.5635 5.3421 85.9663 -5.21683 8.25905 11.2893 -177.049 -17.4549 0.680665 -0.613854 -17.3413 -19.0609 -7.63025 90 -3.18055e-015 9.54166e-015 -25.67 -13.1161 177.536 -29.2004 -0.278526 0.568331 -2.64837 5.86753 1.10475 90 -5.56597e-015 -6.36111e-015 
47.4524 89.8704 68.2558 95.5317 10.7117 -0.578016 1.16766 -0.584209 0.744554 2.34301 -1.15258 1.50113 2.34301 -1.15257 1.50112 -18.6044 -4.12342 -14.3568 45.4296 -3.70396 18.827 -164.216 -7.31174 -95.9886 -14.8668 3.17432 81.067 -19.9532 1.9254 -13.0985 114.667 -88.5264 116.98 -164.323 -9.63555 72.025 -12.3556 -2.7213 -83.7912 -23.8238 -2.92966 14.7048 3.30019 84.1037 -3.1359 3.78647 11.8924 -174.211 -27.1054 0.732189 -0.32801 -13.6715 -15.0172 -5.42482 90 4.77083e-015 1.90833e-014 -22.2462 -13.4124 -179.995 -28.0266 -0.347264 0.518822 -1.79683 4.8302 0.757489 90 -7.15625e-015 -4.77083e-015 
45.0094 89.84 67.8756 94.6408 8.50492 -1.10084 1.26057 -0.224791 0.833965 2.5243 -0.430675 1.67286 2.5243 -0.430716 1.67285 -18.4326 -4.02952 -14.142 45.7304 -3.60064 18.5407 -164.345 -7.13225 -95.7986 -13.2394 2.58033 81.8662 -19.814 1.9249 -13.0787 44.6761 -88.2088 46.9663 -164.422 -9.47801 72.1431 -12.5847 -2.36773 -83.4094 -22.2708 -2.58809 13.8598 3.0697 82.8506 -2.79071 -0.0827451 11.3631 -172.571 -35.1364 0.805368 -0.193836 -8.76549 -8.82649 -2.61828 90 -3.18055e-015 -0 -19.0542 -13.7952 -178.206 -27.0318 -0.414911 0.454222 -1.20257 3.57872 0.426514 90 -1.19271e-014 -1.11319e-014 
42.6192 89.752 67.5716 93.6 5.88978 -1.52134 1.37789 0.181727 0.91945 2.75279 0.385889 1.83446 2.75277 0.385896 1.83445 -18.1303 -3.87496 -13.6649 45.4471 -3.79505 17.5188 -164.598 -6.80488 -95.4534 -14.0825 3.35591 82.7872 -20.418 2.02478 -13.4224 47.0603 -88.2877 49.3962 -164.575 -9.10395 72.4852 -13.0635 -1.51547 -82.7082 -20.5097 -2.22269 12.8989 2.67401 81.1976 -2.34113 -3.19878 10.5305 -171.812 -40.6557 0.845406 -0.123242 -5.08925 -2.92352 -0.801319 90 7.95139e-015 9.54166e-015 -16.2551 -12.6897 -176.477 -26.8066 -0.472783 0.392429 -0.418262 3.16681 0.249204 90 1.27222e-014 1.27222e-014 
40.4065 89.7495 67.4145 93.0061 3.45416 -1.32541 1.39303 0.545182 0.847368 2.77806 1.1112 1.6815 2.77806 1.11122 1.68149 -17.8122 -3.67837 -13.8961 45.3831 -3.16416 17.779 -164.965 -6.71119 -95.7867 -14.9981 4.43368 83.7659 -20.9406 2.10836 -13.7108 53.2163 -88.4391 55.5422 -164.849 -8.93908 72.173 -12.1201 -0.374345 -82.548 -19.571 -2.04288 12.3922 2.0858 78.5538 -1.79228 -6.29802 9.12749 -172.245 -44.0098 0.840763 -0.135902 -3.13357 0.354941 -0.0677513 90 3.97569e-015 9.54166e-015 -14.676 -10.121 -175.665 -27.3009 -0.518644 0.347003 0.74304 3.48582 0.155437 90 0 -3.18055e-015 
38.1805 89.6301 67.2819 92.3106 1.55064 -1.78347 1.4436 0.840111 0.935614 2.87375 1.70392 1.85021 2.87374 1.7039 1.8502 -17.7083 -3.49709 -13.7752 45.3582 -3.07038 17.2598 -165.065 -6.54741 -95.756 -16.5067 5.49759 84.7689 -21.2397 2.14728 -13.8749 79.067 -88.7954 81.4621 -164.88 -8.68101 72.2339 -11.9929 0.224746 -82.394 -19.7998 -2.08699 12.5277 1.74228 78.1517 -1.57207 -9.73279 7.31676 -172.226 -46.864 0.793294 -0.176172 -1.53719 0.490226 0.0358055 90 3.97569e-015 7.95139e-015 -12.5492 -8.51402 -174.399 -27.3165 -0.565092 0.298597 1.69568 3.85107 0.0782353 90 -7.95139e-016 1.59028e-015 
36.0188 89.4648 67.2721 91.813 0.292052 -2.03488 1.44663 1.0609 0.942309 2.87635 2.14563 1.85817 2.87635 2.14559 1.85815 -17.4121 -3.48091 -13.7543 45.2382 -3.02224 17.2192 -165.382 -6.53637 -95.7706 -18.0938 6.47226 85.4001 -20.9225 2.08284 -13.6983 57.82 -88.5816 60.1698 -165.165 -8.57921 72.2664 -13.0145 0.177852 -82.5306 -21.0881 -2.3344 13.2125 2.06092 80.0799 -1.83516 -13.3014 5.198 -172.785 -48.3302 0.745161 -0.267311 -0.109067 -2.54131 -0.209078 90 -9.54166e-015 -1.27222e-014 -10.7716 -7.45888 -173.733 -27.6177 -0.599921 0.255106 2.81237 4.2601 -0.0271412 90 -7.95139e-015 -3.18055e-015 
33.8367 89.2593 67.282 91.1893 -0.730545 -2.19101 1.48872 1.21682 0.991037 2.9572 2.45928 1.95094 2.95718 2.45927 1.95092 -17.2362 -3.35503 -13.8621 45.0059 -2.88333 16.9899 -165.555 -6.45697 -95.9054 -17.9572 6.67524 86.2606 -20.3358 1.98875 -13.4091 14.5917 -85.8117 16.9082 -165.342 -8.43662 72.1432 -16.2214 -0.609738 -82.2618 -22.9375 -2.73603 14.2505 4.0938 84.3425 -3.92336 -16.3802 2.90374 -173.565 -48.0473 0.723512 -0.391471 0.913557 -5.46487 -0.358771 90 -5.91074e-015 -7.95139e-015 -8.97722 -6.2404 -173.396 -28.0334 -0.631678 0.209879 4.22845 4.08541 -0.252547 90 7.15625e-015 9.54166e-015 
31.7666 89.0209 67.2846 91.0052 -1.65006 -2.48514 1.46444 1.36707 1.01576 2.90569 2.75995 1.99725 2.90568 2.75993 1.99723 -17.2539 -3.30025 -13.728 44.9124 -2.81568 16.8576 -165.529 -6.42079 -95.7754 -18.3478 7.0345 86.6931 -19.8226 1.90744 -13.1369 8.97537 -83.5012 11.295 -165.311 -8.34722 72.3015 -17.7416 -0.867684 -82.3434 -24.6319 -3.11309 15.1505 4.79346 85.3438 -4.62829 -19.488 1.114 -173.984 -45.8992 0.719103 -0.559397 1.36455 -6.98959 -0.424218 90 -1.78906e-015 -1.59028e-015 -7.46814 -5.21929 -172.924 -28.0816 -0.660686 0.173888 5.33778 4.0568 -0.422656 90 1.27222e-014 1.27222e-014 
29.5705 88.9727 67.1675 90.5122 -2.2777 -3.02994 1.5314 1.493 1.12696 3.03471 3.01571 2.2149 3.03471 3.01567 2.21489 -17.3256 -3.23247 -13.7049 44.7419 -2.94996 16.4495 -165.448 -6.38557 -95.7612 -18.7254 7.22151 87.2569 -19.5106 1.85618 -12.9814 6.45467 -81.6674 8.75936 -165.227 -8.26423 72.3321 -19.3021 -1.07648 -82.1782 -26.0767 -3.45898 15.9191 5.84636 86.1745 -5.68023 -21.4944 -0.0831167 -173.722 -41.737 0.715779 -0.758165 0.547601 -6.94116 -0.590769 90 1.39149e-015 7.15625e-015 -4.85473 -4.01444 -172.084 -26.7989 -0.690487 0.178078 6.4587 4.98553 -0.538194 90 -2.38542e-015 -3.18055e-015 
27.4272 88.9188 67.0374 90.4867 -3.74035 -3.21178 1.50944 1.76373 1.09048 2.98717 3.55578 2.13577 2.98717 3.5558 2.13575 -17.4336 -3.22653 -13.4765 44.6405 -3.00869 16.2848 -165.337 -6.38682 -95.5518 -19.6855 7.66255 87.5211 -19.5124 1.85366 -12.9695 6.63297 -81.801 8.93627 -165.093 -8.21917 72.5896 -19.6592 -0.9469 -82.2326 -27.1754 -3.71492 16.4674 3.26704 84.2071 -3.11003 -23.0657 -0.403826 -173.431 -35.9297 0.679204 -1.0225 -2.15912 -6.92471 -1.09209 90 -4.96962e-015 -1.59028e-015 -2.81543 -1.59254 -171.599 -25.0495 -0.726303 0.19473 6.57377 5.66645 -0.534165 90 0 -1.59028e-015 
25.1327 88.7805 66.995 90.3402 -4.50135 -3.5584 1.50283 1.8989 1.10199 2.9713 3.8262 2.15569 2.97129 3.82617 2.15568 -17.5566 -3.19766 -13.2386 44.6039 -3.02069 16.1163 -165.195 -6.35113 -95.3273 -20.6825 7.97482 87.6933 -19.5701 1.84611 -12.9986 4.60325 -82.4154 7.16191 -164.93 -8.1467 72.8478 -21.5918 -0.990495 -82.3868 -27.7194 -3.86808 16.7764 8.61844 87.3608 -8.47904 -24.0093 -0.800361 -172.95 -29.5236 0.63815 -1.28907 -4.30839 -5.83138 -1.2713 90 -2.98177e-014 -3.06128e-014 -0.0479937 -2.15652 -171.58 -23.0758 -0.751299 0.191486 6.82899 4.22157 -0.661012 90 5.56597e-015 4.77083e-015 
22.7717 88.4755 66.9111 90.3977 -5.19311 -3.83651 1.44471 2.00018 1.13048 2.8523 4.02832 2.21231 2.8523 4.0283 2.21229 -17.4267 -3.15549 -13.3139 44.1867 -2.90613 16.1404 -165.31 -6.35245 -95.4347 -20.3293 8.14291 87.8678 -19.8346 1.66211 -13.1382 -7.70491 -82.3431 -6.02207 -165.058 -8.08975 72.7444 -21.9197 -0.738731 -82.4123 -27.7299 -3.86979 16.782 8.69751 87.3687 -8.56101 -24.2607 -2.01212 -172.484 -22.321 0.559186 -1.53284 -6.86462 -4.45919 -1.33086 90 4.96962e-015 5.66536e-015 2.17066 -0.821797 -171.314 -21.4717 -0.772163 0.214783 7.35862 4.38253 -0.745806 90 2.14687e-014 2.22639e-014 
20.2576 88.2375 66.9564 90.4731 -5.8289 -4.08268 1.36074 2.05776 1.12432 2.68342 4.14177 2.20172 2.6834 4.14178 2.2017 -17.67 -3.05182 -13.22 44.7443 -2.78909 16.0103 -165.078 -6.28474 -95.3668 -19.4753 8.43784 87.6618 -20.0324 1.87697 -13.2291 0.704984 -79.3646 2.9822 -164.782 -8.00843 72.8378 -21.6289 -0.404255 -82.6258 -27.2373 -3.73115 16.5049 5.14449 85.8783 -4.98728 -24.0745 -4.62585 -172.094 -16.1857 0.468375 -1.70311 -8.16703 -3.72564 -1.28767 90 -1.19271e-015 -2.38542e-015 4.889 -0.405535 -171.377 -19.1908 -0.792007 0.239297 7.49412 3.79541 -0.797396 90 3.49861e-014 3.49861e-014 
